<svg xmlns="http://www.w3.org/2000/svg" viewBox="0 0 64 64">
  <defs>
    <linearGradient id="bg" x1="0" y1="0" x2="1" y2="1">
      <stop offset="0%" stop-color="#0d6efd" />
      <stop offset="100%" stop-color="#0a58ca" />
    </linearGradient>
  </defs>
  <rect x="4" y="4" width="56" height="56" rx="14" fill="url(#bg)" />
  <path d="M32 14c9.941 0 18 8.059 18 18 0 12.2-12.56 17.88-16.74 19.41a3.6 3.6 0 0 1-2.52 0C26.56 49.88 14 44.2 14 32c0-9.941 8.059-18 18-18z" fill="#fff"/>
  <path d="M32 22a10 10 0 0 0-10 10c0 6.1 5.58 9.8 10 11.8 4.42-2 10-5.7 10-11.8a10 10 0 0 0-10-10z" fill="#0d6efd"/>
</svg>
